<svg width="1000" height="400" viewBox="0 0 1000 400" fill="none" xmlns="http://www.w3.org/2000/svg">
<g clip-path="url(#clip0_1_2)">
<path d="M147.674 284.599L12.8564 140.9H282.492L147.674 284.599Z" fill="#E8E6EE"/>
<rect x="135.899" y="247.549" width="23.9498" height="95.7994" fill="#E8E6EE"/>
<path d="M76.0245 367.298L137.097 338.558H159.37L219.724 367.298H76.0245Z" fill="#E8E6EE"/>
<rect x="43.1161" y="75.184" width="60.3536" height="16.0943" rx="4" transform="rotate(-15.6357 43.1161 75.184)" fill="#E8E6EE"/>
<rect x="87.3759" y="63.2032" width="16.0943" height="160.943" rx="4" transform="rotate(-11.7612 87.3759 63.2032)" fill="#E8E6EE"/>
<circle cx="99.9494" cy="63.4465" r="3.52063" fill="#E8E6EE"/>
<path fill-rule="evenodd" clip-rule="evenodd" d="M286.077 64.1882C286.519 64.1882 286.96 64.1921 287.4 64.1997L288.369 32.0359C287.441 32.012 286.509 32 285.575 32C240.17 32 201.393 60.3817 186.018 100.372L216.15 112.127C226.986 84.0811 254.208 64.1882 286.077 64.1882ZM361.016 139.127C361.016 100.003 331.034 67.8814 292.793 64.4851L296.032 32.5063C350.012 37.7606 392.2 83.2658 392.2 138.625C392.2 173.982 374.99 205.319 348.491 224.718L330.285 199.644C348.916 186.011 361.016 163.982 361.016 139.127ZM325.766 202.705C314.257 209.905 300.653 214.066 286.077 214.066C267.241 214.066 250.028 207.117 236.862 195.642L216.454 219.813C235.068 235.675 259.203 245.249 285.575 245.249C306.362 245.249 325.759 239.301 342.157 229.014L325.766 202.705ZM211.199 142.172C211.975 161.593 220.142 179.112 232.964 191.994L210.862 214.696C191.951 196.12 179.936 170.548 179.009 142.172H211.199ZM214.389 117.225L183.523 107.639C181.189 115.334 179.703 123.397 179.171 131.72L211.296 134.226C211.675 128.348 212.732 122.656 214.389 117.225Z" fill="#E8E6EE"/>
<path d="M509.86 158.56C511.54 156.787 512.893 155.9 513.92 155.9C514.947 155.9 515.46 156.46 515.46 157.58C515.46 158.607 515.087 159.493 514.34 160.24C509.673 166.493 503.42 172.187 495.58 177.32C487.833 182.36 479.9 184.88 471.78 184.88C463.753 184.88 457.593 182.313 453.3 177.18C449.1 171.953 447 165.047 447 156.46C447 147.873 448.96 138.54 452.88 128.46C456.8 118.287 461.887 108.86 468.14 100.18C474.487 91.4067 482.14 84.1267 491.1 78.34C500.153 72.46 509.3 69.52 518.54 69.52C526.567 69.52 530.58 73.2067 530.58 80.58C530.58 85.9933 528.573 92.2933 524.56 99.48C520.547 106.667 515.46 112.92 509.3 118.24C503.14 123.467 497.447 126.08 492.22 126.08C489.42 126.08 488.02 124.587 488.02 121.6C488.02 119.36 489.327 116.56 491.94 113.2C494.553 109.84 496.98 108.16 499.22 108.16C500.433 108.16 500.9 109.233 500.62 111.38C500.34 113.527 501.367 114.6 503.7 114.6C507.06 114.6 510.187 112.033 513.08 106.9C516.067 101.767 517.56 96.96 517.56 92.48C517.56 83.24 513.733 78.62 506.08 78.62C499.08 78.62 492.313 81.7933 485.78 88.14C479.34 94.4867 474.207 102.233 470.38 111.38C466.647 120.433 464.78 129.16 464.78 137.56C464.78 145.96 466.787 152.727 470.8 157.86C474.907 162.9 481.253 165.42 489.84 165.42C493.48 165.42 496.98 164.813 500.34 163.6C505.007 162.013 508.18 160.333 509.86 158.56ZM534.072 99.62C530.246 99.62 528.332 112.267 528.332 137.56V145.96C530.759 139.8 532.999 132.987 535.052 125.52C537.199 118.053 538.272 111.893 538.272 107.04C538.272 102.093 536.872 99.62 534.072 99.62ZM529.732 172.14C530.666 172.14 533.372 169.06 537.852 162.9C542.332 156.74 545.179 153.66 546.392 153.66C547.606 153.567 548.819 154.547 550.032 156.6C551.246 158.653 552.412 160.94 553.532 163.46C554.746 165.887 556.659 168.173 559.272 170.32C561.886 172.373 564.499 173.4 567.112 173.4C569.726 173.4 571.312 173.213 571.872 172.84C572.432 172.467 572.852 172.28 573.132 172.28C573.506 172.28 573.692 172.653 573.692 173.4C573.599 175.267 572.106 177.507 569.212 180.12C566.319 182.827 562.492 184.18 557.732 184.18C549.706 184.18 544.106 179.56 540.932 170.32C540.652 169.76 540.372 169.48 540.092 169.48C539.906 169.48 539.579 169.667 539.112 170.04C538.646 170.413 537.666 171.487 536.172 173.26C534.679 175.033 533.139 176.853 531.552 178.72C530.059 180.587 529.126 181.707 528.752 182.08C528.379 182.453 527.679 182.64 526.652 182.64C525.626 182.64 525.066 182.08 524.972 180.96C524.132 172.56 523.712 163.787 523.712 154.64C523.712 145.4 523.806 138.26 523.992 133.22C524.272 128.18 524.786 121.693 525.532 113.76C526.279 105.827 527.586 99.34 529.452 94.3C531.412 89.26 533.839 86.74 536.732 86.74C542.799 86.74 545.832 90.9867 545.832 99.48C545.832 106.76 543.872 115.953 539.952 127.06C536.032 138.073 532.252 146.8 528.612 153.24C528.986 165.84 529.359 172.14 529.732 172.14ZM605.343 161.08L604.783 165C604.783 166.68 605.483 168.453 606.883 170.32C608.377 172.093 610.103 172.98 612.063 172.98C613.557 172.98 614.77 172.653 615.703 172C617.757 170.6 619.017 169.667 619.483 169.2C620.043 168.64 620.883 168.36 622.003 168.36C623.217 168.36 623.823 168.78 623.823 169.62C623.823 170.553 621.63 173.493 617.243 178.44C615.843 180.027 613.79 181.707 611.083 183.48C608.377 185.253 605.95 186.14 603.803 186.14C601.75 186.14 600.163 185.767 599.043 185.02C598.017 184.367 597.27 183.293 596.803 181.8C596.243 179.747 595.963 177.227 595.963 174.24C595.963 173.867 595.73 173.68 595.263 173.68C594.797 173.68 593.723 174.613 592.043 176.48C586.817 181.893 582.57 184.6 579.303 184.6C576.13 184.6 573.657 183.76 571.883 182.08C570.203 180.4 569.363 178.253 569.363 175.64C569.363 171.067 570.577 166.727 573.003 162.62C575.43 158.42 578.323 155.06 581.683 152.54C589.15 147.033 594.937 144.28 599.043 144.28C605.203 144.467 608.283 146.66 608.283 150.86C608.283 152.353 607.63 153.847 606.323 155.34C605.017 156.74 603.803 157.44 602.683 157.44C601.563 157.44 600.023 156.46 598.063 154.5C596.103 152.54 593.957 151.56 591.623 151.56C589.29 151.56 587.377 152.54 585.883 154.5C584.39 156.367 583.643 158.793 583.643 161.78C583.643 166.633 586.21 169.06 591.343 169.06C593.397 169.06 595.077 168.547 596.383 167.52C597.783 166.493 598.763 165.373 599.323 164.16C600.91 160.987 602.357 159.4 603.663 159.4C604.783 159.4 605.343 159.96 605.343 161.08ZM621.079 160.66L617.299 160.94C615.619 160.94 614.779 160.52 614.779 159.68C614.779 158.373 616.412 155.9 619.679 152.26C623.039 148.527 626.026 146.66 628.639 146.66C629.759 146.66 630.739 146.987 631.579 147.64C632.512 148.293 633.026 149.087 633.119 150.02L633.819 156.32C634.099 156.693 634.379 156.88 634.659 156.88C634.939 156.88 635.686 156.133 636.899 154.64C640.819 150.067 644.319 147.78 647.399 147.78C648.612 147.78 649.592 147.967 650.339 148.34C651.086 148.713 651.926 149.46 652.859 150.58C653.886 151.607 654.446 152.167 654.539 152.26C655.192 151.98 655.846 151.84 656.499 151.84C657.526 151.84 658.039 152.493 658.039 153.8C658.039 155.013 656.219 157.347 652.579 160.8C648.939 164.16 646.232 165.84 644.459 165.84C642.686 165.84 641.192 165.047 639.979 163.46C638.766 161.873 637.879 161.08 637.319 161.08C635.172 161.08 634.099 162.2 634.099 164.44C634.099 166.12 634.846 168.967 636.339 172.98C637.926 176.993 638.719 179.373 638.719 180.12C638.719 181.987 637.739 183.433 635.779 184.46C633.912 185.58 631.812 186.14 629.479 186.14C627.239 186.14 625.419 185.767 624.019 185.02C622.619 184.273 621.919 183.247 621.919 181.94L625.839 165C625.839 162.107 624.252 160.66 621.079 160.66ZM632.376 136.02C632.376 134.153 633.87 132.753 636.856 131.82C641.43 129.86 648.896 126.827 659.256 122.72C661.123 108.533 663.923 101.44 667.656 101.44C670.083 101.44 671.296 105.313 671.296 113.06C671.296 115.3 671.25 116.98 671.156 118.1C685.343 112.687 694.863 109.373 699.716 108.16C704.57 106.947 708.443 106.34 711.336 106.34C715.723 106.34 717.916 107.927 717.916 111.1C717.916 112.127 717.263 112.967 715.956 113.62C710.17 116.513 706.576 117.96 705.176 117.96C704.896 117.96 704.43 117.773 703.776 117.4C703.123 116.933 702.376 116.7 701.536 116.7C700.696 116.7 698.97 117.027 696.356 117.68C691.036 119.08 682.31 121.787 670.176 125.8C669.056 133.08 667.423 138.307 665.276 141.48C665.65 152.12 667.05 159.307 669.476 163.04C670.596 164.813 672.183 166.353 674.236 167.66C676.383 168.967 678.996 169.62 682.076 169.62C685.156 169.62 688.19 168.22 691.176 165.42C691.736 164.86 692.203 164.58 692.576 164.58C693.323 164.58 693.696 165.187 693.696 166.4C693.696 170.32 691.083 174.287 685.856 178.3C680.63 182.22 675.636 184.18 670.876 184.18C661.45 184.18 656.736 176.527 656.736 161.22C656.736 151.607 657.296 141.247 658.416 130.14C650.67 133.127 644.976 135.553 641.336 137.42C637.603 139.287 635.41 140.22 634.756 140.22C634.103 140.22 633.543 139.753 633.076 138.82C632.61 137.887 632.376 136.953 632.376 136.02ZM701.156 162.9C702.742 162.34 704.329 160.567 705.916 157.58C707.596 154.5 708.436 151.98 708.436 150.02C708.436 148.06 707.689 147.033 706.196 146.94C703.956 146.94 702.369 147.967 701.436 150.02C700.502 151.98 700.036 154.173 700.036 156.6C700.036 158.933 700.409 161.033 701.156 162.9ZM713.196 172C715.809 172 717.956 171.44 719.636 170.32C721.409 169.107 723.042 167.567 724.536 165.7C726.122 163.833 727.336 162.9 728.176 162.9C729.109 162.9 729.576 163.32 729.576 164.16C729.576 164.72 729.389 165.373 729.016 166.12C725.936 171.067 722.109 175.407 717.536 179.14C712.962 182.967 708.109 184.88 702.976 184.88C697.842 184.88 694.109 183.62 691.776 181.1C689.536 178.673 688.416 175.407 688.416 171.3C688.416 164.207 691.076 156.973 696.396 149.6C701.716 142.133 707.222 138.4 712.916 138.4C715.902 138.4 717.396 139.613 717.396 142.04C717.396 145.307 716.369 148.713 714.316 152.26C712.262 155.713 708.482 160.427 702.976 166.4C705.496 170.133 708.902 172 713.196 172ZM724.845 166.96C724.845 165.467 726.292 163.04 729.185 159.68C732.079 156.227 734.412 154.5 736.185 154.5C738.052 154.5 739.405 155.2 740.245 156.6C741.179 158 741.739 159.54 741.925 161.22C742.112 162.9 742.625 164.44 743.465 165.84C744.399 167.24 745.705 167.94 747.385 167.94C749.159 167.94 750.699 167.193 752.005 165.7C753.405 164.113 754.525 162.387 755.365 160.52C756.205 158.56 757.325 156.833 758.725 155.34C760.125 153.753 761.479 152.96 762.785 152.96C764.185 152.96 765.165 153.52 765.725 154.64C771.512 167.053 777.392 173.26 783.365 173.26C784.299 173.26 785.139 173.12 785.885 172.84C786.632 172.56 787.192 172.42 787.565 172.42C788.685 172.42 789.245 173.307 789.245 175.08C789.245 178.253 787.565 181.1 784.205 183.62C780.939 186.14 777.579 187.4 774.125 187.4C770.672 187.4 767.732 186.28 765.305 184.04C762.972 181.8 761.339 179.513 760.405 177.18C759.565 174.753 758.912 172.42 758.445 170.18C758.072 167.94 757.652 166.82 757.185 166.82C756.439 166.82 754.945 168.313 752.705 171.3C750.559 174.193 748.085 177.133 745.285 180.12C742.579 183.107 740.152 184.6 738.005 184.6C735.765 184.32 733.992 183.2 732.685 181.24C731.379 179.373 730.539 177.413 730.165 175.36C729.325 169.76 727.552 166.96 724.845 166.96ZM817.572 125.94C817.572 137.42 818.552 146.8 820.512 154.08C822.846 148.107 824.759 141.433 826.252 134.06C827.839 126.593 828.632 121.32 828.632 118.24C828.632 108.347 827.372 103.4 824.852 103.4C822.706 103.4 820.932 106.107 819.532 111.52C818.226 116.84 817.572 121.647 817.572 125.94ZM838.292 171.86L843.612 170.46C844.826 170.46 845.432 170.973 845.432 172C845.432 172.84 844.639 174.147 843.052 175.92C841.466 177.6 839.179 179.373 836.192 181.24C833.206 183.107 830.312 184.04 827.512 184.04C821.352 184.04 816.919 180.68 814.212 173.96C808.799 180.587 802.639 183.9 795.732 183.9C792.186 183.9 789.619 182.593 788.032 179.98C786.446 177.46 785.652 174.287 785.652 170.46C785.652 165.327 788.452 160.053 794.052 154.64C799.746 149.227 804.226 146.52 807.492 146.52C808.332 146.52 808.892 147.033 809.172 148.06C809.172 148.807 807.959 149.973 805.532 151.56C801.892 153.8 800.072 156.693 800.072 160.24C800.072 164.16 801.146 166.68 803.292 167.8C804.879 168.733 806.326 169.2 807.632 169.2C809.032 169.2 810.526 168.547 812.112 167.24C811.086 162.2 810.572 156.133 810.572 149.04C810.572 141.853 811.132 134.293 812.252 126.36C813.466 118.333 815.379 111.053 817.992 104.52C820.699 97.9867 823.732 94.72 827.092 94.72C829.239 94.72 830.826 96.2133 831.852 99.2C832.879 102.187 833.392 105.873 833.392 110.26C833.392 114.647 832.459 121.927 830.592 132.1C828.819 142.18 826.112 151.42 822.472 159.82C825.926 167.847 831.199 171.86 838.292 171.86ZM856.878 162.9C858.465 162.34 860.052 160.567 861.638 157.58C863.318 154.5 864.158 151.98 864.158 150.02C864.158 148.06 863.412 147.033 861.918 146.94C859.678 146.94 858.092 147.967 857.158 150.02C856.225 151.98 855.758 154.173 855.758 156.6C855.758 158.933 856.132 161.033 856.878 162.9ZM868.918 172C871.532 172 873.678 171.44 875.358 170.32C877.132 169.107 878.765 167.567 880.258 165.7C881.845 163.833 883.058 162.9 883.898 162.9C884.832 162.9 885.298 163.32 885.298 164.16C885.298 164.72 885.112 165.373 884.738 166.12C881.658 171.067 877.832 175.407 873.258 179.14C868.685 182.967 863.832 184.88 858.698 184.88C853.565 184.88 849.832 183.62 847.498 181.1C845.258 178.673 844.138 175.407 844.138 171.3C844.138 164.207 846.798 156.973 852.118 149.6C857.438 142.133 862.945 138.4 868.638 138.4C871.625 138.4 873.118 139.613 873.118 142.04C873.118 145.307 872.092 148.713 870.038 152.26C867.985 155.713 864.205 160.427 858.698 166.4C861.218 170.133 864.625 172 868.918 172ZM885.903 160.66L882.123 160.94C880.443 160.94 879.603 160.52 879.603 159.68C879.603 158.373 881.237 155.9 884.503 152.26C887.863 148.527 890.85 146.66 893.463 146.66C894.583 146.66 895.563 146.987 896.403 147.64C897.337 148.293 897.85 149.087 897.943 150.02L898.643 156.32C898.923 156.693 899.203 156.88 899.483 156.88C899.763 156.88 900.51 156.133 901.723 154.64C905.643 150.067 909.143 147.78 912.223 147.78C913.437 147.78 914.417 147.967 915.163 148.34C915.91 148.713 916.75 149.46 917.683 150.58C918.71 151.607 919.27 152.167 919.363 152.26C920.017 151.98 920.67 151.84 921.323 151.84C922.35 151.84 922.863 152.493 922.863 153.8C922.863 155.013 921.043 157.347 917.403 160.8C913.763 164.16 911.057 165.84 909.283 165.84C907.51 165.84 906.017 165.047 904.803 163.46C903.59 161.873 902.703 161.08 902.143 161.08C899.997 161.08 898.923 162.2 898.923 164.44C898.923 166.12 899.67 168.967 901.163 172.98C902.75 176.993 903.543 179.373 903.543 180.12C903.543 181.987 902.563 183.433 900.603 184.46C898.737 185.58 896.637 186.14 894.303 186.14C892.063 186.14 890.243 185.767 888.843 185.02C887.443 184.273 886.743 183.247 886.743 181.94L890.663 165C890.663 162.107 889.077 160.66 885.903 160.66Z" fill="#E8E6EE"/>
<path d="M648.06 282L648.6 242.22C648.48 241.38 648 240.96 647.16 240.96C646.44 240.96 645.78 241.38 645.18 242.22C639.3 256.86 631.86 277.08 622.86 302.88C613.98 328.56 609.3 342.06 608.82 343.38C608.46 344.7 607.32 346.26 605.4 348.06C603.48 349.98 601.8 350.94 600.36 350.94C598.92 350.94 598.2 349.8 598.2 347.52C598.08 346.68 597.9 342.72 597.66 335.64C597.42 328.44 597.06 321.12 596.58 313.68C596.1 306.24 595.44 298.56 594.6 290.64C593.88 282.6 592.8 276.06 591.36 271.02C589.92 265.86 588.3 263.28 586.5 263.28C583.38 263.28 574.56 287.88 560.04 337.08C558.12 343.8 557.1 347.28 556.98 347.52C556.5 349.08 555.36 350.4 553.56 351.48C551.88 352.68 550.26 353.28 548.7 353.28C547.38 353.28 546.72 352.32 546.72 350.4C547.56 325.68 547.98 305.22 547.98 289.02C547.98 258.42 547.5 237.84 546.54 227.28L546 221.34C546 220.5 546.84 219.3 548.52 217.74C550.2 216.06 551.76 215.22 553.2 215.22C554.64 215.22 555.36 216.54 555.36 219.18V220.44L555.72 235.56V242.94C555.72 288.66 555.42 316.32 554.82 325.92C554.82 328.08 555 329.16 555.36 329.16C555.72 329.16 560.7 314.52 570.3 285.24C580.02 255.84 585.42 239.34 586.5 235.74C587.58 232.14 588.96 229.44 590.64 227.64C592.32 225.72 594.12 224.76 596.04 224.76C598.8 224.76 601.08 232.62 602.88 248.34C604.68 264.06 606.06 279.78 607.02 295.5C608.1 311.22 608.88 319.08 609.36 319.08C609.96 319.08 611.58 315.66 614.22 308.82C616.86 301.98 619.86 293.7 623.22 283.98C626.7 274.26 630.12 264.54 633.48 254.82C641.76 231.54 646.32 220.14 647.16 220.62C646.92 220.5 647.28 220.02 648.24 219.18C651.12 216.78 653.46 215.46 655.26 215.22C657.9 215.58 659.22 217.2 659.22 220.08V224.76C659.22 233.76 659.4 240.96 659.76 246.36C663.36 306.24 676.74 336.18 699.9 336.18C701.82 336.18 703.56 335.64 705.12 334.56C706.68 333.48 707.7 332.94 708.18 332.94C708.78 332.94 709.44 333.3 710.16 334.02C710.88 334.74 711.24 335.52 711.24 336.36C711.24 339.48 707.94 343.14 701.34 347.34C694.86 351.66 688.5 353.82 682.26 353.82C659.46 353.82 648.06 329.88 648.06 282ZM726.17 324.3C728.21 323.58 730.25 321.3 732.29 317.46C734.45 313.5 735.53 310.26 735.53 307.74C735.53 305.22 734.57 303.9 732.65 303.78C729.77 303.78 727.73 305.1 726.53 307.74C725.33 310.26 724.73 313.08 724.73 316.2C724.73 319.2 725.21 321.9 726.17 324.3ZM741.65 336C745.01 336 747.77 335.28 749.93 333.84C752.21 332.28 754.31 330.3 756.23 327.9C758.27 325.5 759.83 324.3 760.91 324.3C762.11 324.3 762.71 324.84 762.71 325.92C762.71 326.64 762.47 327.48 761.99 328.44C758.03 334.8 753.11 340.38 747.23 345.18C741.35 350.1 735.11 352.56 728.51 352.56C721.91 352.56 717.11 350.94 714.11 347.7C711.23 344.58 709.79 340.38 709.79 335.1C709.79 325.98 713.21 316.68 720.05 307.2C726.89 297.6 733.97 292.8 741.29 292.8C745.13 292.8 747.05 294.36 747.05 297.48C747.05 301.68 745.73 306.06 743.09 310.62C740.45 315.06 735.59 321.12 728.51 328.8C731.75 333.6 736.13 336 741.65 336ZM756.628 329.52C756.628 327.6 758.488 324.48 762.208 320.16C765.928 315.72 768.928 313.5 771.208 313.5C773.608 313.5 775.348 314.4 776.428 316.2C777.628 318 778.348 319.98 778.588 322.14C778.828 324.3 779.488 326.28 780.568 328.08C781.768 329.88 783.448 330.78 785.608 330.78C787.888 330.78 789.868 329.82 791.548 327.9C793.348 325.86 794.788 323.64 795.868 321.24C796.948 318.72 798.388 316.5 800.188 314.58C801.988 312.54 803.728 311.52 805.408 311.52C807.208 311.52 808.468 312.24 809.188 313.68C816.628 329.64 824.188 337.62 831.868 337.62C833.068 337.62 834.148 337.44 835.108 337.08C836.068 336.72 836.788 336.54 837.268 336.54C838.708 336.54 839.428 337.68 839.428 339.96C839.428 344.04 837.268 347.7 832.948 350.94C828.748 354.18 824.428 355.8 819.988 355.8C815.548 355.8 811.768 354.36 808.648 351.48C805.648 348.6 803.548 345.66 802.348 342.66C801.268 339.54 800.428 336.54 799.828 333.66C799.348 330.78 798.808 329.34 798.208 329.34C797.248 329.34 795.328 331.26 792.448 335.1C789.688 338.82 786.508 342.6 782.908 346.44C779.428 350.28 776.308 352.2 773.548 352.2C770.668 351.84 768.388 350.4 766.708 347.88C765.028 345.48 763.948 342.96 763.468 340.32C762.388 333.12 760.108 329.52 756.628 329.52ZM921.749 327.54C919.349 331.86 914.789 336.84 908.069 342.48C901.469 348 895.649 350.76 890.609 350.76C881.129 350.76 876.149 344.94 875.669 333.3C875.669 332.22 875.429 331.68 874.949 331.68C874.709 331.68 873.449 333.12 871.169 336C869.009 338.88 865.949 341.82 861.989 344.82C858.149 347.7 854.129 349.14 849.929 349.14C845.849 349.14 842.549 347.88 840.029 345.36C837.629 342.84 836.429 339.48 836.429 335.28C836.429 330.96 837.689 325.32 840.209 318.36C842.729 311.4 845.189 307.92 847.589 307.92C848.789 308.04 849.749 308.64 850.469 309.72C851.309 310.8 851.729 312 851.729 313.32C851.849 314.64 852.149 316.26 852.629 318.18C853.109 320.1 854.429 322.26 856.589 324.66C858.749 326.94 861.569 328.08 865.049 328.08C871.049 328.08 875.969 322.92 879.809 312.6C879.809 312.48 879.929 312.18 880.169 311.7C880.409 311.1 880.589 310.68 880.709 310.44C880.829 310.08 881.009 309.66 881.249 309.18C881.489 308.58 881.729 308.16 881.969 307.92C883.649 306.6 885.029 306.6 886.109 307.92C886.829 308.88 887.249 310.62 887.369 313.14C887.369 316.98 888.989 320.76 892.229 324.48C895.589 328.08 899.909 329.88 905.189 329.88C910.469 329.88 914.669 328.32 917.789 325.2C918.989 323.76 920.189 323.04 921.389 323.04C922.229 323.04 922.649 323.52 922.649 324.48C922.649 325.44 922.349 326.46 921.749 327.54Z" fill="#E8E6EE"/>
</g>
<defs>
<clipPath id="clip0_1_2">
<rect width="1000" height="400" fill="white"/>
</clipPath>
</defs>
</svg>
